<svg xmlns="http://www.w3.org/2000/svg" width="1200" height="630" viewBox="0 0 1200 630">
  <rect width="1200" height="630" fill="#ffffff" />
  <rect width="1200" height="12" fill="#1f6feb" />

  <text x="80" y="132" font-family="Helvetica, Arial, sans-serif" font-size="25" font-weight="bold" letter-spacing="3" fill="#1f6feb">STICKTOTHEPLAN · VÄTTERNRUNDAN</text>

  <text x="78" y="258" font-family="Helvetica, Arial, sans-serif" font-size="82" font-weight="bold" fill="#1c2430">Så räknar vi</text>
  <text x="78" y="350" font-family="Helvetica, Arial, sans-serif" font-size="82" font-weight="bold" fill="#1c2430">ut din tid</text>

  <text x="80" y="424" font-family="Helvetica, Arial, sans-serif" font-size="32" fill="#5b6675">Jämn ansträngning, variabel fart,</text>
  <text x="80" y="468" font-family="Helvetica, Arial, sans-serif" font-size="32" fill="#5b6675">vind och drafting. Här är modellen.</text>

  <text x="80" y="566" font-family="Helvetica, Arial, sans-serif" font-size="28" font-weight="bold" fill="#1f6feb">sticktotheplan.vercel.app</text>

  <line x1="780" y1="412" x2="1120" y2="372" stroke="#d8dce3" stroke-width="3" stroke-linecap="round" />

  <circle cx="900" cy="404" r="34" fill="none" stroke="#1c2430" stroke-width="4" />
  <circle cx="1020" cy="388" r="34" fill="none" stroke="#1c2430" stroke-width="4" />
  <path d="M900 404 L962 348 L1020 388 M962 348 L938 404" fill="none" stroke="#1c2430" stroke-width="4" stroke-linejoin="round" />
  <line x1="938" y1="348" x2="1004" y2="340" stroke="#1c2430" stroke-width="4" stroke-linecap="round" />
  <line x1="962" y1="348" x2="948" y2="316" stroke="#1c2430" stroke-width="4" stroke-linecap="round" />
  <circle cx="945" cy="304" r="15" fill="none" stroke="#1c2430" stroke-width="4" />

  <line x1="930" y1="296" x2="716" y2="296" stroke="#1f6feb" stroke-width="7" stroke-linecap="round" />
  <polygon points="700,296 720,286 720,306" fill="#1f6feb" />

  <line x1="888" y1="448" x2="794" y2="448" stroke="#868e96" stroke-width="5" stroke-linecap="round" />
  <polygon points="780,448 798,440 798,456" fill="#868e96" />

  <line x1="962" y1="412" x2="962" y2="462" stroke="#e8590c" stroke-width="6" stroke-linecap="round" />
  <polygon points="962,478 952,460 972,460" fill="#e8590c" />

  <line x1="1044" y1="372" x2="1118" y2="372" stroke="#2b8a3e" stroke-width="6" stroke-linecap="round" />
  <polygon points="1132,372 1114,363 1114,381" fill="#2b8a3e" />
</svg>
